<?xml version="1.0" encoding="iso-8859-1"?>
<!-- Generator: Adobe Illustrator 16.0.0, SVG Export Plug-In . SVG Version: 6.00 Build 0)  -->
<!DOCTYPE svg PUBLIC "-//W3C//DTD SVG 1.1//EN" "http://www.w3.org/Graphics/SVG/1.1/DTD/svg11.dtd">
<svg version="1.1" id="Capa_1" xmlns="http://www.w3.org/2000/svg" xmlns:xlink="http://www.w3.org/1999/xlink" x="0px" y="0px"
	 width="26px" height="26px" viewBox="0 0 26 26" style="enable-background:new 0 0 26 26;" xml:space="preserve">
<g>
	<g>
		<path d="M19,0H7C5.9,0,5,0.9,5,2v22c0,1.1,0.9,2,2,2h12c1.1,0,2-0.9,2-2V2C21,0.9,20.1,0,19,0z M12,0.923h2
			c0.275,0,0.5,0.159,0.5,0.354c0,0.195-0.225,0.354-0.5,0.354h-2c-0.275,0-0.5-0.159-0.5-0.354C11.5,1.083,11.725,0.923,12,0.923z
			 M7.5,0.778c0.275,0,0.5,0.224,0.5,0.5c0,0.276-0.225,0.5-0.5,0.5S7,1.554,7,1.278C7,1.002,7.225,0.778,7.5,0.778z M13,24.936
			c-0.659,0-1.193-0.533-1.193-1.192c0-0.66,0.534-1.194,1.193-1.194s1.193,0.534,1.193,1.194C14.193,24.4,13.659,24.936,13,24.936z
			 M20,21c0,0.275-0.225,0.5-0.5,0.5h-13C6.225,21.5,6,21.275,6,21V3c0-0.275,0.225-0.5,0.5-0.5h13C19.775,2.5,20,2.725,20,3V21z"/>
		<path d="M13,6.167c-2.955,0-5.351,2.396-5.351,5.35c0,1.529,0.645,2.903,1.672,3.877l-0.237,2.98l2.6-1.677
			c0.423,0.106,0.861,0.169,1.316,0.169c2.955,0,5.352-2.395,5.352-5.35C18.352,8.563,15.955,6.167,13,6.167z M9.831,10.696
			c0-0.53,0.43-0.96,0.96-0.96c0.531,0,0.961,0.43,0.961,0.96c0,0.531-0.43,0.96-0.961,0.96
			C10.261,11.657,9.831,11.227,9.831,10.696z M13,15.129c-1.478,0-2.675-1.172-2.675-1.848c0-0.674,1.197,0.029,2.675,0.029
			c1.479,0,2.676-0.705,2.676-0.029C15.676,13.957,14.479,15.129,13,15.129z M15.209,11.657c-0.529,0-0.959-0.43-0.959-0.96
			c0-0.53,0.43-0.96,0.959-0.96s0.96,0.43,0.96,0.96C16.169,11.227,15.738,11.657,15.209,11.657z"/>
	</g>
</g>
<g>
</g>
<g>
</g>
<g>
</g>
<g>
</g>
<g>
</g>
<g>
</g>
<g>
</g>
<g>
</g>
<g>
</g>
<g>
</g>
<g>
</g>
<g>
</g>
<g>
</g>
<g>
</g>
<g>
</g>
</svg>
